<svg width="80" height="80" viewBox="0 0 80 80" fill="none" xmlns="http://www.w3.org/2000/svg">
<rect width="80" height="80" rx="5" fill="#DFE1E1"/>
<path d="M53.334 26.6673H48.0507L45.0007 23.334H35.0007L31.9507 26.6673H26.6673C24.834 26.6673 23.334 28.1673 23.334 30.0007V50.0006C23.334 51.834 24.834 53.334 26.6673 53.334H53.334C55.1673 53.334 56.6673 51.834 56.6673 50.0006V30.0007C56.6673 28.1673 55.1673 26.6673 53.334 26.6673ZM53.334 50.0006H26.6673V30.0007H33.4173L36.4673 26.6673H43.534L46.584 30.0007H53.334V50.0006ZM40.0007 31.6673C35.4007 31.6673 31.6673 35.4006 31.6673 40.0006C31.6673 44.6006 35.4007 48.334 40.0007 48.334C44.6007 48.334 48.334 44.6006 48.334 40.0006C48.334 35.4006 44.6007 31.6673 40.0007 31.6673ZM40.0007 45.0006C37.2507 45.0006 35.0007 42.7506 35.0007 40.0006C35.0007 37.2506 37.2507 35.0006 40.0007 35.0006C42.7507 35.0006 45.0007 37.2506 45.0007 40.0006C45.0007 42.7506 42.7507 45.0006 40.0007 45.0006Z" fill="#C1C4C5"/>
</svg>
